<svg id="Layer_1" enable-background="new 0 0 512 512" height="512" viewBox="0 0 512 512" width="512" xmlns="http://www.w3.org/2000/svg"><g><g><path d="m336 288v-24h-224v24c-17.673 0-32 14.327-32 32v144c0 17.673 14.327 32 32 32h224c17.673 0 32-14.327 32-32v-144c0-17.673-14.327-32-32-32z" fill="#5f78be"/></g><g><g><path d="m112 264h224v24h-224z" fill="#46508c"/></g><g><path d="m224 464h-144c0 17.673 14.327 32 32 32h224c17.673 0 32-14.327 32-32v-144h-144z" fill="#46508c"/></g></g><g><g><path d="m392 32h-146.745c-8.487 0-16.626 3.371-22.627 9.373l-38.628 38.627v96h176c17.673 0 32-14.327 32-32h16v-112z" fill="#f0915a"/></g><g><g><g><circle cx="224" cy="112" fill="#faa51e" r="88"/></g><g><path d="m224 32c44.112 0 80 35.888 80 80s-35.888 80-80 80-80-35.888-80-80 35.888-80 80-80m0-16c-53.019 0-96 42.981-96 96s42.981 96 96 96 96-42.981 96-96-42.981-96-96-96z" fill="#f06423"/></g></g><path d="m248 104c4.418 0 8-3.582 8-8v-5.404c0-13.789-10.549-25.158-24-26.468v-8.128c0-4.418-3.582-8-8-8s-8 3.582-8 8v8.128c-13.451 1.31-24 12.679-24 26.468 0 11.466 7.309 21.605 18.186 25.231l22.568 7.522c4.334 1.445 7.246 5.485 7.246 10.053 0 5.843-4.753 10.596-10.596 10.596h-10.808c-5.843 0-10.596-4.753-10.596-10.596v-5.402c0-4.418-3.582-8-8-8s-8 3.582-8 8v5.404c0 13.789 10.549 25.158 24 26.468v8.128c0 4.418 3.582 8 8 8s8-3.582 8-8v-8.128c13.451-1.31 24-12.679 24-26.468 0-11.466-7.309-21.605-18.186-25.231l-22.568-7.522c-4.334-1.446-7.246-5.486-7.246-10.055 0-5.843 4.753-10.596 10.596-10.596h10.808c5.843 0 10.596 4.753 10.596 10.596v5.404c0 4.418 3.582 8 8 8z" fill="#f06423"/></g><g><path d="m408 32v112c0 8.837 7.163 16 16 16h8v-144h-8c-8.837 0-16 7.163-16 16z" fill="#5f78be"/></g><g><path d="m408 32v56h24v-72h-8c-8.837 0-16 7.163-16 16z" fill="#46508c"/></g><g><path d="m283.314 36.686-40 40c-6.248 6.248-6.248 16.379 0 22.627l.726.726c12.497 12.497 32.758 12.497 45.255 0l12.038-12.039h34.667c30.928 0 56-25.072 56-56h-97.373c-4.243 0-8.313 1.686-11.313 4.686z" fill="#fab991"/></g><g><path d="m245.333 74.667 2.02 2.02c6.248 6.248 16.379 6.248 22.627 0l1.696-1.696c3.124-3.124 3.124-8.19 0-11.314l-7.676-7.677z" fill="#f0915a"/></g></g><g><g><path d="m152 368h176c4.418 0 8-3.582 8-8v-16c0-4.418-3.582-8-8-8h-176c-4.418 0-8 3.582-8 8v16c0 4.418 3.582 8 8 8z" fill="#faa51e"/></g><g><path d="m152 336h88v32h-88c-4.418 0-8-3.582-8-8v-16c0-4.418 3.582-8 8-8z" fill="#ffcd06"/></g></g><g><g><path d="m136 432h176c4.418 0 8-3.582 8-8v-16c0-4.418-3.582-8-8-8h-176c-4.418 0-8 3.582-8 8v16c0 4.418 3.582 8 8 8z" fill="#faa51e"/></g><g><path d="m136 400h88v32h-88c-4.418 0-8-3.582-8-8v-16c0-4.418 3.582-8 8-8z" fill="#ffcd06"/></g></g><g><g><path d="m136 464h176c4.418 0 8-3.582 8-8v-16c0-4.418-3.582-8-8-8h-176c-4.418 0-8 3.582-8 8v16c0 4.418 3.582 8 8 8z" fill="#f06423"/></g><g><path d="m136 432h88v32h-88c-4.418 0-8-3.582-8-8v-16c0-4.418 3.582-8 8-8z" fill="#faa51e"/></g></g><g><g><path d="m120 400h176c4.418 0 8-3.582 8-8v-16c0-4.418-3.582-8-8-8h-176c-4.418 0-8 3.582-8 8v16c0 4.418 3.582 8 8 8z" fill="#f06423"/></g><g><path d="m120 368h88v32h-88c-4.418 0-8-3.582-8-8v-16c0-4.418 3.582-8 8-8z" fill="#faa51e"/></g></g><g><path d="m336 216h-224c-4.418 0-8 3.582-8 8v32c0 4.418 3.582 8 8 8h224c4.418 0 8-3.582 8-8v-32c0-4.418-3.582-8-8-8z" fill="#73cddc"/></g><g><path d="m224 264h112c4.418 0 8-3.582 8-8v-32h-112c-4.418 0-8 3.582-8 8z" fill="#5f78be"/></g></g></svg>