<svg id="Layer_1" height="512" viewBox="0 0 512 512" width="512" xmlns="http://www.w3.org/2000/svg" data-name="Layer 1"><path d="m119 283a167.011 167.011 0 0 1 152-166.322c-4.942-.44-9.943-.678-15-.678a167 167 0 0 0 0 334c5.057 0 10.058-.238 15-.678a167.011 167.011 0 0 1 -152-166.322z" fill="#d4e1f4"/><g fill="#0635c9"><path d="m230.96 48.94h48.04v12h-48.04z"/><path d="m118.2 60.94h89.23v-12h-16.037l-3.776-8h19.813v-12h-89.23a6 6 0 0 0 -6 6v20a6 6 0 0 0 6 6zm35.61-20 3.779 8h-7.328l-3.78-8zm24.313 8h-7.263l-3.779-8h7.267zm-53.923-8h9.009l3.78 8h-12.789z"/><path d="m232.96 28.94h44.85v12h-44.85z"/><path d="m354.51 64.94a6 6 0 0 0 6 6h30a6 6 0 0 0 6-6v-40a6 6 0 0 0 -6-6h-30a6 6 0 0 0 -6 6v4h-50.91v12h50.91v8h-50.91v12h50.91zm12-34h18v28h-18z"/><path d="m256 110c-95.393 0-173 77.607-173 173s77.607 173 173 173 173-77.607 173-173-77.607-173-173-173zm0 334c-88.775 0-161-72.224-161-161s72.225-161 161-161 161 72.224 161 161-72.225 161-161 161z"/></g><path d="m315.412 71.2a6.245 6.245 0 0 1 -4.543-5.636l-2.457-40.144a18.474 18.474 0 0 0 -36.932.769c0 .652.03 1.261.089 1.854l3.073 48.575c0 .088.013.175.022.262a33.849 33.849 0 0 0 26.958 29.648l4.972 1.013a183.2 183.2 0 0 1 -50.236 359.359h-.358a183.234 183.234 0 0 1 -146.377-293.422 184.643 184.643 0 0 1 93.293-65.206c1.608-.477 3.178-.993 4.667-1.534l4.766-1.738c1.48-.535 3.011-1 4.633-1.488l.771-.234c10.292-3.124 16.61-10.946 17.793-22.024.009-.079.016-.157.02-.236l3.543-52.973a18.475 18.475 0 1 0 -36.843-2.577l-1.691 39.046a7.8 7.8 0 0 1 -5.653 7.157 222.178 222.178 0 0 0 -114.3 78.2 220.43 220.43 0 0 0 175.378 354.399 220.6 220.6 0 0 0 174.858-355.07 222.037 222.037 0 0 0 -115.446-78zm-59.412 421.07a208.6 208.6 0 0 1 -165.84-335.106 210.1 210.1 0 0 1 108.086-73.964 19.79 19.79 0 0 0 14.318-18.172l.43-9.83 1.261-29.236a6.475 6.475 0 1 1 12.909.939c-.009.08-.016.161-.021.241l-3.543 52.952c-.7 6.263-3.667 9.984-9.335 11.705l-.757.229c-1.7.514-3.459 1.046-5.253 1.694l-4.777 1.739c-1.26.458-2.6.9-4 1.315a196.748 196.748 0 0 0 -99.434 69.476 195.226 195.226 0 0 0 155.956 312.648h.385a195.244 195.244 0 0 0 53.281-382.96c-.148-.042-.3-.078-.448-.109l-5.195-1.059a21.888 21.888 0 0 1 -17.414-19.05l-3.071-48.562c-.006-.094-.015-.187-.024-.28a6.067 6.067 0 0 1 -.034-.69 6.475 6.475 0 0 1 12.945-.228c0 .046 0 .092.007.137l2.46 40.2a18.251 18.251 0 0 0 13.3 16.461 209.977 209.977 0 0 1 109.164 73.763 206.61 206.61 0 0 1 43.224 127.157c0 115.02-93.568 208.59-208.58 208.59z" fill="#1ae5be"/></svg>