<svg id="Capa_1" enable-background="new 0 0 512 512" height="512" viewBox="0 0 512 512" width="512" xmlns="http://www.w3.org/2000/svg"><g><g><path d="m349.572 199.01 55.15 97.66 24.26 2.6 71.518-88.888 11.492-36.912-86.35-34.63z" fill="#ffa64d"/></g><g><path d="m162.42 199.01-55.15 97.66-24.26 2.6-71.518-88.888-11.492-36.912 86.35-34.63z" fill="#ffc34d"/></g><g><path d="m256 0 64.159 134.231-64.159 239.399c-2.93 0-5.87-.85-8.41-2.57l-161.79-109.53c-4.12-2.79-6.59-7.44-6.59-12.42v-234.11c0-8.28 6.72-15 15-15z" fill="#e6eef2"/></g><path d="m432.79 15v234.11c0 4.98-2.47 9.63-6.59 12.42l-161.79 109.53c-2.54 1.72-5.48 2.57-8.41 2.57v-373.63h161.79c8.28 0 15 6.72 15 15z" fill="#cfdfe6"/><path d="m256 330.68 36.178 42.95-36.178 33.04-253.77 98.19c-1.42-2.28-2.23-4.98-2.23-7.86v-323.53l255.36 157.6z" fill="#ffe666"/><path d="m512 173.47v323.53c0 2.88-.81 5.58-2.23 7.86l-253.76-98.19h-.01v-75.99z" fill="#ffc34d"/><path d="m256 348.69 54.696 109.012-54.696 54.298h-241c-5.4 0-10.13-2.86-12.77-7.14z" fill="#ffc34d"/><path d="m509.77 504.86c-2.64 4.28-7.37 7.14-12.77 7.14h-241v-163.31l.01-.01z" fill="#ffa64d"/><g><path d="m256 297 25.92 51.68-25.92 83.32c-3.98 0-7.79-1.58-10.61-4.39l-56.95-56.95c-9.44-9.45-14.65-22.01-14.65-35.37 0-27.586 22.316-50.02 50.02-50.02 11.91 0 23.19 4.14 32.19 11.73z" fill="#f69"/></g><path d="m338.21 335.29c0 13.36-5.21 25.92-14.65 35.37l-56.95 56.95c-2.82 2.81-6.63 4.39-10.61 4.39v-135c9-7.59 20.28-11.73 32.19-11.73 27.699 0 50.02 22.43 50.02 50.02z" fill="#f37"/><path d="m255.996 179.943 17.923 17.131-17.923 28.242c-7.496.682-15.659-5.778-15.659-14.971v-1.359c-6.86-1.209-13.129-3.788-21.048-8.965-6.93-4.527-8.879-13.821-4.34-20.747 4.53-6.926 13.829-8.874 20.758-4.337 4.798 3.134 9.13 5.899 20.289 5.006z" fill="#2ee6a8"/><path d="m246.297 116.162c2.47 1.939 5.859 3.788 9.699 5.547l10.591 23.586-10.591 8.784c-10.419-3.878-20.628-8.385-28.208-14.321-9.599-7.525-14.009-20.418-11.509-33.66 2.55-13.542 11.689-24.445 24.058-28.962v-2.099c0-9.202 8.174-15.648 15.659-14.971l12.025 25.79-12.025 18.453c-1.55.06-3.23.32-5.03.86-5.586 1.68-6.23 9.745-4.669 10.993z" fill="#2ee6a8"/><g fill="#29cc95"><path d="m287.114 107.097c-9.079 10.124-20.338.19-20.338.19s-4.18-3.248-10.779-2.978v-44.243c7.979.34 14.339 6.916 14.339 14.971v1.199c7.589 2.219 13.439 5.936 16.779 9.015-.001-.001 10.638 9.983-.001 21.846z"/><path d="m298.893 172.987c-2.71 16.14-13.889 28.982-28.558 34.299v3.058c0 8.055-6.36 14.631-14.339 14.971v-45.373c8.979-.44 12.589-7.635 13.319-11.923.66-3.958-.09-9.214-7.419-11.803-1.96-.69-3.94-1.399-5.9-2.139v-32.37c4.92 2.259 10.559 4.357 15.889 6.236 19.528 6.907 30.377 25.006 27.008 45.044z"/></g></g></svg>